<svg width="131" height="156" viewBox="0 0 131 156" fill="none" xmlns="http://www.w3.org/2000/svg">
<path d="M68.3753 148.56C67.7152 150.152 65.4853 150.219 64.7301 148.67L2.45616 20.9251C1.95957 19.9065 2.40777 18.6791 3.44395 18.2201L24.8377 8.74407C24.9888 8.67711 25.1477 8.62914 25.3107 8.6013L55.623 3.4212C55.7703 3.39601 55.92 3.38744 56.0693 3.39561L91.7251 5.34895C91.8975 5.3584 92.068 5.39015 92.2323 5.44339L121.462 14.9168C122.573 15.2767 123.14 16.5072 122.693 17.5855L68.3753 148.56Z" fill="#4F958F"/>
<path d="M47.38 47L44.32 42.48L42.9 43.88V47H40.22V32.4H42.9V41.24L47.12 36.54H49.96L46.06 40.98L50.24 47H47.38ZM51.3723 47V36.52H54.0523V47H51.3723ZM51.3723 35.06V32.4H54.0523V35.06H51.3723ZM62.75 46.46C62.5233 46.5533 62.25 46.66 61.93 46.78C61.61 46.9 61.2633 46.9933 60.89 47.06C60.53 47.14 60.1633 47.18 59.79 47.18C59.2967 47.18 58.8433 47.0933 58.43 46.92C58.0167 46.7467 57.6833 46.4733 57.43 46.1C57.19 45.7133 57.07 45.2133 57.07 44.6V38.58H55.69V36.52H57.07V33.12H59.75V36.52H61.95V38.58H59.75V43.7C59.7633 44.06 59.8633 44.32 60.05 44.48C60.2367 44.64 60.47 44.72 60.75 44.72C61.03 44.72 61.3033 44.6733 61.57 44.58C61.8367 44.4867 62.05 44.4067 62.21 44.34L62.75 46.46ZM64.0858 42.72V40.3H70.1458V42.72H64.0858ZM80.6852 44.58V47H72.5652V44.58H75.4052V38.52C75.2852 38.68 75.0985 38.8467 74.8452 39.02C74.5918 39.18 74.3052 39.3333 73.9852 39.48C73.6652 39.6267 73.3452 39.7467 73.0252 39.84C72.7052 39.9333 72.4185 39.98 72.1652 39.98V37.48C72.4052 37.48 72.6918 37.4067 73.0252 37.26C73.3718 37.1 73.7118 36.9133 74.0452 36.7C74.3918 36.4867 74.6852 36.28 74.9252 36.08C75.1785 35.8667 75.3385 35.7 75.4052 35.58H78.1452V44.58H80.6852Z" fill="white"/>
</svg>
