<svg width="150" height="123" viewBox="0 0 150 123" fill="none" xmlns="http://www.w3.org/2000/svg">
<path d="M145.988 62.0935C147.545 62.8308 147.504 65.0614 145.92 65.7398L15.2788 121.685C14.237 122.131 13.033 121.624 12.6253 120.566L4.20801 98.7342C4.14853 98.5799 4.1084 98.4188 4.08857 98.2547L0.398654 67.7252C0.38071 67.5768 0.379474 67.4268 0.394947 67.2781L4.09151 31.7607C4.10939 31.5889 4.14945 31.4202 4.21067 31.2587L15.1037 2.52742C15.5176 1.43588 16.7744 0.929292 17.8295 1.42874L145.988 62.0935Z" fill="#D2A340"/>
<path d="M27.38 64L24.32 59.48L22.9 60.88V64H20.22V49.4H22.9V58.24L27.12 53.54H29.96L26.06 57.98L30.24 64H27.38ZM31.3723 64V53.52H34.0523V64H31.3723ZM31.3723 52.06V49.4H34.0523V52.06H31.3723ZM42.75 63.46C42.5233 63.5533 42.25 63.66 41.93 63.78C41.61 63.9 41.2633 63.9933 40.89 64.06C40.53 64.14 40.1633 64.18 39.79 64.18C39.2967 64.18 38.8433 64.0933 38.43 63.92C38.0167 63.7467 37.6833 63.4733 37.43 63.1C37.19 62.7133 37.07 62.2133 37.07 61.6V55.58H35.69V53.52H37.07V50.12H39.75V53.52H41.95V55.58H39.75V60.7C39.7633 61.06 39.8633 61.32 40.05 61.48C40.2367 61.64 40.47 61.72 40.75 61.72C41.03 61.72 41.3033 61.6733 41.57 61.58C41.8367 61.4867 42.05 61.4067 42.21 61.34L42.75 63.46ZM44.0858 59.72V57.3H50.1458V59.72H44.0858ZM57.5252 66.54V63.56H51.6852V61.18L58.3852 52.58H60.2052V61.16H61.9652V63.56H60.2052V66.54H57.5252ZM54.3652 61.16H57.8252V56.64L54.3652 61.16Z" fill="white"/>
</svg>
