<svg width="124" height="152" viewBox="0 0 124 152" fill="none" xmlns="http://www.w3.org/2000/svg">
<path d="M61.8665 5.00962C62.5878 3.44456 64.8186 3.46354 65.5132 5.04064L122.794 135.102C123.25 136.139 122.755 137.348 121.702 137.766L99.9572 146.407C99.8035 146.468 99.6429 146.51 99.4789 146.531L68.9888 150.534C68.8406 150.553 68.6907 150.556 68.5418 150.542L32.9884 147.209C32.8165 147.193 32.6473 147.155 32.4852 147.095L3.64387 136.497C2.54815 136.094 2.02872 134.843 2.51733 133.783L61.8665 5.00962Z" fill="#4F958F"/>
<path d="M48.38 119L45.32 114.48L43.9 115.88V119H41.22V104.4H43.9V113.24L48.12 108.54H50.96L47.06 112.98L51.24 119H48.38ZM52.3723 119V108.52H55.0523V119H52.3723ZM52.3723 107.06V104.4H55.0523V107.06H52.3723ZM63.75 118.46C63.5233 118.553 63.25 118.66 62.93 118.78C62.61 118.9 62.2633 118.993 61.89 119.06C61.53 119.14 61.1633 119.18 60.79 119.18C60.2967 119.18 59.8433 119.093 59.43 118.92C59.0167 118.747 58.6833 118.473 58.43 118.1C58.19 117.713 58.07 117.213 58.07 116.6V110.58H56.69V108.52H58.07V105.12H60.75V108.52H62.95V110.58H60.75V115.7C60.7633 116.06 60.8633 116.32 61.05 116.48C61.2367 116.64 61.47 116.72 61.75 116.72C62.03 116.72 62.3033 116.673 62.57 116.58C62.8367 116.487 63.05 116.407 63.21 116.34L63.75 118.46ZM65.0858 114.72V112.3H71.1458V114.72H65.0858ZM79.3778 114.28C79.9378 114.373 80.4245 114.587 80.8378 114.92C81.2511 115.24 81.5711 115.653 81.7978 116.16C82.0378 116.667 82.1578 117.227 82.1578 117.84C82.1578 118.667 81.9445 119.387 81.5178 120C81.0911 120.613 80.4845 121.087 79.6978 121.42C78.9245 121.767 78.0111 121.94 76.9578 121.94C75.9445 121.94 75.0445 121.773 74.2578 121.44C73.4845 121.12 72.8378 120.647 72.3178 120.02L73.8378 118.12C74.1845 118.547 74.5978 118.88 75.0778 119.12C75.5711 119.373 76.1711 119.5 76.8778 119.5C77.6911 119.5 78.3111 119.333 78.7378 119C79.1645 118.68 79.3778 118.193 79.3778 117.54C79.3778 116.847 79.1311 116.313 78.6378 115.94C78.1445 115.567 77.3978 115.38 76.3978 115.38H75.8378V113.38H76.4578C77.2711 113.38 77.9045 113.193 78.3578 112.82C78.8245 112.447 79.0578 111.98 79.0578 111.42C79.0578 111.06 78.9711 110.76 78.7978 110.52C78.6245 110.28 78.3845 110.1 78.0778 109.98C77.7845 109.86 77.4378 109.8 77.0378 109.8C76.4378 109.8 75.8911 109.94 75.3978 110.22C74.9045 110.5 74.5045 110.893 74.1978 111.4L72.5178 109.52C72.7978 109.107 73.1778 108.753 73.6578 108.46C74.1511 108.153 74.7111 107.913 75.3378 107.74C75.9778 107.567 76.6445 107.48 77.3378 107.48C78.2445 107.48 79.0378 107.627 79.7178 107.92C80.4111 108.213 80.9511 108.627 81.3378 109.16C81.7245 109.693 81.9178 110.313 81.9178 111.02C81.9178 111.54 81.8111 112.033 81.5978 112.5C81.3845 112.967 81.0845 113.36 80.6978 113.68C80.3245 113.987 79.8845 114.187 79.3778 114.28Z" fill="white"/>
</svg>
