<svg width="165" height="141" viewBox="0 0 165 141" fill="none" xmlns="http://www.w3.org/2000/svg">
<path d="M12.2349 79.2253C10.5938 78.6992 10.342 76.4825 11.8232 75.6017L133.973 2.96336C134.947 2.38411 136.207 2.72914 136.75 3.72376L147.965 24.2593C148.045 24.4044 148.106 24.5588 148.147 24.7189L155.819 54.4981C155.857 54.6429 155.878 54.7914 155.882 54.9408L156.888 90.6359C156.893 90.8085 156.875 90.981 156.836 91.1492L149.815 121.063C149.549 122.2 148.369 122.867 147.258 122.511L12.2349 79.2253Z" fill="#D2A340"/>
<path d="M91.38 76L88.32 71.48L86.9 72.88V76H84.22V61.4H86.9V70.24L91.12 65.54H93.96L90.06 69.98L94.24 76H91.38ZM95.3723 76V65.52H98.0523V76H95.3723ZM95.3723 64.06V61.4H98.0523V64.06H95.3723ZM106.75 75.46C106.523 75.5533 106.25 75.66 105.93 75.78C105.61 75.9 105.263 75.9933 104.89 76.06C104.53 76.14 104.163 76.18 103.79 76.18C103.297 76.18 102.843 76.0933 102.43 75.92C102.017 75.7467 101.683 75.4733 101.43 75.1C101.19 74.7133 101.07 74.2133 101.07 73.6V67.58H99.69V65.52H101.07V62.12H103.75V65.52H105.95V67.58H103.75V72.7C103.763 73.06 103.863 73.32 104.05 73.48C104.237 73.64 104.47 73.72 104.75 73.72C105.03 73.72 105.303 73.6733 105.57 73.58C105.837 73.4867 106.05 73.4067 106.21 73.34L106.75 75.46ZM108.086 71.72V69.3H114.146V71.72H108.086ZM116.045 76C116.045 75.4 116.092 74.86 116.185 74.38C116.278 73.9 116.438 73.4533 116.665 73.04C116.905 72.6267 117.225 72.24 117.625 71.88C118.038 71.5067 118.558 71.1467 119.185 70.8C119.732 70.5067 120.212 70.2533 120.625 70.04C121.038 69.8133 121.385 69.6067 121.665 69.42C121.958 69.2333 122.178 69.0467 122.325 68.86C122.472 68.66 122.545 68.4333 122.545 68.18C122.545 67.9133 122.472 67.6733 122.325 67.46C122.178 67.2333 121.972 67.0533 121.705 66.92C121.438 66.7867 121.105 66.72 120.705 66.72C120.385 66.72 120.085 66.76 119.805 66.84C119.538 66.92 119.285 67.0333 119.045 67.18C118.818 67.3267 118.605 67.4933 118.405 67.68C118.205 67.8533 118.025 68.04 117.865 68.24L116.165 66.28C116.352 66.0933 116.598 65.8933 116.905 65.68C117.225 65.4533 117.598 65.2467 118.025 65.06C118.465 64.86 118.945 64.7 119.465 64.58C119.998 64.4467 120.565 64.38 121.165 64.38C122.072 64.38 122.845 64.5267 123.485 64.82C124.125 65.1 124.612 65.4933 124.945 66C125.292 66.5067 125.465 67.1 125.465 67.78C125.465 68.2467 125.378 68.66 125.205 69.02C125.032 69.38 124.812 69.7 124.545 69.98C124.278 70.2467 123.985 70.4867 123.665 70.7C123.358 70.9133 123.058 71.1 122.765 71.26C122.352 71.4733 121.978 71.6733 121.645 71.86C121.312 72.0333 121.018 72.2133 120.765 72.4C120.512 72.5733 120.285 72.7533 120.085 72.94C119.898 73.1267 119.732 73.34 119.585 73.58H125.685V76H116.045Z" fill="white"/>
</svg>
